<svg height="46" viewBox="0 0 106 46" width="106" xmlns="http://www.w3.org/2000/svg"><g fill="none" fill-rule="nonzero"><path d="m34.712 45.534-2.515-2.512 9.918-9.85 9.838 9.749-2.536 2.513-7.302-7.257z" fill="#375de7"/><path d="m105.111 8.903v4.19h-5.131v10.569c0 .985.796 1.785 1.783 1.785h3.348v4.19h-3.348c-3.305 0-6.006-2.69-6.006-5.975v-10.57h-3.083v-4.19h3.083v-6.592h4.223v6.594h5.131zm-42.067 4.19v10.569h-.226.226c0 .985.795 1.785 1.783 1.785h3.348v4.19h-3.348c-3.312 0-6.006-2.678-6.006-5.975v-10.57h-3.083v-4.19h3.083v-6.592h4.223v6.594h5.131v4.19h-5.131zm-48.124 16.627c-4.212 0-7.696-1.379-10.453-4.097-2.755-2.756-4.134-6.239-4.134-10.451 0-4.25 1.417-7.735 4.289-10.491 2.871-2.795 6.355-4.174 10.49-4.174 4.71 0 9.113 1.991 11.678 5.016l-3.025 2.987c-2.259-2.488-5.13-3.713-8.614-3.713-2.949 0-5.399.995-7.352 2.948-1.952 1.952-2.948 4.441-2.948 7.428 0 2.948.957 5.436 2.91 7.389s4.365 2.91 7.275 2.91c3.254 0 6.47-1.417 8.614-3.676v-5.054h-8.92v-3.982h13.017v11.104c-3.522 3.905-7.81 5.858-12.826 5.858zm16.494-10.72c0-3.025 1.033-5.552 3.063-7.658 2.067-2.106 4.67-3.178 7.849-3.178 3.177 0 5.781 1.072 7.81 3.178 2.068 2.106 3.102 4.633 3.102 7.657 0 3.063-1.034 5.628-3.102 7.734-2.029 2.106-4.633 3.14-7.81 3.14-3.178 0-5.782-1.034-7.85-3.14-2.029-2.106-3.062-4.67-3.062-7.734zm17.353-.039c0-1.876-.651-3.522-1.953-4.863-1.263-1.378-2.833-2.067-4.71-2.067-1.875 0-3.445.69-4.747 2.067-1.263 1.34-1.914 2.987-1.914 4.863 0 1.914.65 3.56 1.914 4.9 1.302 1.34 2.872 2.03 4.748 2.03s3.446-.69 4.71-2.03c1.301-1.34 1.952-2.986 1.952-4.9zm35.348 10.761v-29.215h4.403v29.216h-4.403z" fill="#000"/></g></svg>